<svg width="94" height="94" viewBox="0 0 94 94" fill="none" xmlns="http://www.w3.org/2000/svg">
<g clip-path="url(#clip0_293_129)">
<path d="M45.8043 44.4679C51.5226 32.445 54.4745 26.2665 52.2666 20.8803C50.5682 16.7371 45.7681 14.8655 41.6249 16.5639C39.2495 17.5376 37.3922 19.4605 36.5424 21.8736C34.2433 20.7513 31.5708 20.6854 29.0296 21.727C24.8864 23.4254 23.0148 28.2255 24.7132 32.3687C26.8532 37.5891 33.2925 39.918 45.8043 44.4679ZM44.4679 47.6613C32.445 41.943 26.2664 38.9911 20.8803 41.199C16.7371 42.8974 14.8655 47.6975 16.5639 51.8407C17.5376 54.2161 19.4605 56.0734 21.8736 56.9232C20.7512 59.2223 20.6853 61.8948 21.727 64.436C23.4254 68.5792 28.2255 70.4508 32.3687 68.7524C37.5891 66.6124 39.9179 60.1731 44.4679 47.6613ZM49.0254 45.793C61.0206 51.5226 67.1992 54.4745 72.5853 52.2666C76.7285 50.5682 78.6001 45.7681 76.9017 41.6249C75.928 39.2495 74.0051 37.3922 71.592 36.5424C72.7144 34.2433 72.7803 31.5708 71.7386 29.0296C70.0402 24.8864 65.2401 23.0148 61.0969 24.7132C55.8765 26.8532 53.5477 33.2925 49.0254 45.793ZM47.6613 48.9978C41.943 61.0206 38.9911 67.1992 41.199 72.5853C42.8974 76.7285 47.6975 78.6001 51.8407 76.9017C54.2161 75.928 56.0734 74.0052 56.9232 71.592C59.2223 72.7144 61.8948 72.7803 64.436 71.7386C68.5792 70.0402 70.4508 65.2401 68.7524 61.0969C66.6124 55.8765 60.1731 53.5477 47.6613 48.9978Z" fill="url(#paint0_linear_293_129)"/>
</g>
<defs>
<linearGradient id="paint0_linear_293_129" x1="35.4101" y1="19.1115" x2="58.0555" y2="74.3541" gradientUnits="userSpaceOnUse">
<stop stop-color="#28846B"/>
<stop offset="0.942308" stop-color="#5BAF4A" stop-opacity="0.97"/>
</linearGradient>
<clipPath id="clip0_293_129">
<rect width="71.6447" height="71.6447" fill="white" transform="translate(0 27.1744) rotate(-22.2899)"/>
</clipPath>
</defs>
</svg>
