<svg width="19" height="19" viewBox="0 0 19 19" fill="none" xmlns="http://www.w3.org/2000/svg">
<g filter="url(#filter0_i_285_499)">
<path d="M9.5 2.92308C8.19921 2.92308 6.92763 3.30881 5.84606 4.03149C4.76449 4.75417 3.92151 5.78134 3.42372 6.98312C2.92593 8.18489 2.79568 9.50729 3.04945 10.7831C3.30323 12.0589 3.92962 13.2308 4.84942 14.1506C5.76922 15.0704 6.94111 15.6968 8.21691 15.9505C9.49271 16.2043 10.8151 16.0741 12.0169 15.5763C13.2187 15.0785 14.2458 14.2355 14.9685 13.1539C15.6912 12.0724 16.0769 10.8008 16.0769 9.5C16.075 7.75628 15.3814 6.08454 14.1485 4.85155C12.9155 3.61856 11.2437 2.92501 9.5 2.92308ZM9.5 12.4231C9.9542 12.4246 10.4024 12.3197 10.8087 12.1166C11.215 11.9136 11.568 11.6181 11.8394 11.2538C11.8964 11.1754 11.9684 11.1092 12.0513 11.0589C12.1341 11.0086 12.2262 10.9752 12.322 10.9609C12.4179 10.9465 12.5157 10.9513 12.6097 10.9751C12.7036 10.9988 12.7919 11.0411 12.8694 11.0993C12.9469 11.1575 13.0121 11.2306 13.0611 11.3143C13.11 11.3979 13.1419 11.4905 13.1548 11.5865C13.1676 11.6826 13.1613 11.7803 13.136 11.8739C13.1108 11.9675 13.0671 12.0551 13.0077 12.1317C12.4553 12.8676 11.6855 13.411 10.8072 13.6851C9.92882 13.9592 8.98652 13.95 8.11368 13.6589C7.24085 13.3677 6.48172 12.8094 5.9438 12.0629C5.40587 11.3164 5.11642 10.4196 5.11642 9.49954C5.11642 8.57943 5.40587 7.68264 5.9438 6.93616C6.48172 6.18968 7.24085 5.63134 8.11368 5.3402C8.98652 5.04907 9.92882 5.0399 10.8072 5.31398C11.6855 5.58807 12.4553 6.13153 13.0077 6.8674C13.0671 6.94397 13.1108 7.0316 13.136 7.12519C13.1613 7.21878 13.1676 7.31646 13.1548 7.41254C13.1419 7.50862 13.11 7.60118 13.0611 7.68483C13.0121 7.76848 12.9469 7.84155 12.8694 7.89978C12.7919 7.958 12.7036 8.00023 12.6097 8.024C12.5157 8.04777 12.4179 8.05261 12.322 8.03823C12.2262 8.02384 12.1341 7.99053 12.0513 7.94023C11.9684 7.88993 11.8964 7.82365 11.8394 7.74524C11.5403 7.34684 11.1444 7.03148 10.6893 6.82908C10.2341 6.62668 9.73476 6.54396 9.23864 6.58877C8.74252 6.63359 8.26608 6.80445 7.85454 7.08513C7.44301 7.36582 7.11004 7.74702 6.88723 8.19256C6.66441 8.63809 6.55916 9.13317 6.58145 9.63081C6.60375 10.1285 6.75285 10.6121 7.0146 11.036C7.27636 11.4598 7.64209 11.8097 8.07707 12.0525C8.51205 12.2952 9.00186 12.4228 9.5 12.4231ZM9.5 0C7.62108 0 5.78435 0.557165 4.22209 1.60104C2.65982 2.64491 1.44218 4.12861 0.723149 5.86451C0.0041162 7.6004 -0.184015 9.51054 0.182544 11.3534C0.549104 13.1962 1.45389 14.8889 2.78249 16.2175C4.11109 17.5461 5.80383 18.4509 7.64665 18.8175C9.48946 19.184 11.3996 18.9959 13.1355 18.2769C14.8714 17.5578 16.3551 16.3402 17.399 14.7779C18.4428 13.2156 19 11.3789 19 9.5C18.9973 6.98126 17.9956 4.56644 16.2146 2.78542C14.4336 1.0044 12.0187 0.00265983 9.5 0ZM9.5 17.5385C7.91015 17.5385 6.35599 17.067 5.03407 16.1837C3.71216 15.3005 2.68185 14.045 2.07343 12.5762C1.46502 11.1073 1.30583 9.49108 1.616 7.93177C1.92616 6.37246 2.69175 4.94015 3.81595 3.81595C4.94015 2.69175 6.37247 1.92616 7.93178 1.61599C9.49109 1.30583 11.1074 1.46502 12.5762 2.07343C14.045 2.68184 15.3005 3.71215 16.1837 5.03407C17.067 6.35599 17.5385 7.91014 17.5385 9.5C17.536 11.6312 16.6884 13.6744 15.1814 15.1814C13.6744 16.6884 11.6312 17.536 9.5 17.5385Z" fill="white"/>
</g>
<defs>
<filter id="filter0_i_285_499" x="0" y="0" width="19" height="23" filterUnits="userSpaceOnUse" color-interpolation-filters="sRGB">
<feFlood flood-opacity="0" result="BackgroundImageFix"/>
<feBlend mode="normal" in="SourceGraphic" in2="BackgroundImageFix" result="shape"/>
<feColorMatrix in="SourceAlpha" type="matrix" values="0 0 0 0 0 0 0 0 0 0 0 0 0 0 0 0 0 0 127 0" result="hardAlpha"/>
<feOffset dy="4"/>
<feGaussianBlur stdDeviation="2"/>
<feComposite in2="hardAlpha" operator="arithmetic" k2="-1" k3="1"/>
<feColorMatrix type="matrix" values="0 0 0 0 0 0 0 0 0 0 0 0 0 0 0 0 0 0 0.25 0"/>
<feBlend mode="normal" in2="shape" result="effect1_innerShadow_285_499"/>
</filter>
</defs>
</svg>
